<svg xmlns="http://www.w3.org/2000/svg" width="40" height="40" viewBox="0 0 40 40">
  <defs>
    <linearGradient id="bg" x1="0" y1="0" x2="1" y2="1">
      <stop offset="0%" stop-color="#263238"/>
      <stop offset="100%" stop-color="#37474F"/>
    </linearGradient>
  </defs>
  <rect width="40" height="40" rx="8" fill="url(#bg)"/>
  <!-- Keyboard base -->
  <rect x="5" y="12" width="30" height="18" rx="2" fill="none" stroke="#78909C" stroke-width="1.2"/>
  <!-- Key rows -->
  <rect x="7" y="14" width="4" height="3" rx="0.5" fill="#00C853"/>
  <rect x="12" y="14" width="4" height="3" rx="0.5" fill="#FFD600"/>
  <rect x="17" y="14" width="4" height="3" rx="0.5" fill="#FF1744"/>
  <rect x="22" y="14" width="4" height="3" rx="0.5" fill="#2979FF"/>
  <rect x="27" y="14" width="6" height="3" rx="0.5" fill="#651FFF"/>
  <rect x="7" y="18.5" width="5" height="3" rx="0.5" fill="#00E676"/>
  <rect x="13" y="18.5" width="4" height="3" rx="0.5" fill="#FF9100"/>
  <rect x="18" y="18.5" width="4" height="3" rx="0.5" fill="#00BCD4"/>
  <rect x="23" y="18.5" width="4" height="3" rx="0.5" fill="#E91E63"/>
  <rect x="28" y="18.5" width="5" height="3" rx="0.5" fill="#FFEB3B"/>
  <rect x="7" y="23" width="6" height="3" rx="0.5" fill="#78909C"/>
  <rect x="14" y="23" width="12" height="3" rx="0.5" fill="#546E7A"/>
  <rect x="27" y="23" width="6" height="3" rx="0.5" fill="#78909C"/>
  <!-- RGB glow -->
  <circle cx="20" cy="8" r="2.5" fill="#00C853" opacity="0.8"/>
  <circle cx="15" cy="9" r="1.5" fill="#2979FF" opacity="0.6"/>
  <circle cx="25" cy="9" r="1.5" fill="#FF1744" opacity="0.6"/>
</svg>
